<mxfile host="app.diagrams.net" modified="2021-09-03T08:49:51.591Z" agent="5.0 (Windows NT 10.0; Win64; x64) AppleWebKit/537.36 (KHTML, like Gecko) Chrome/89.0.4389.114 Safari/537.36" etag="dM4nd82yZpzvOq9SudMN" version="15.0.6" type="github">
  <diagram id="_8k5bW7-HBrVeypegjBD" name="Page-1">
    <mxGraphModel dx="1422" dy="762" grid="1" gridSize="10" guides="1" tooltips="1" connect="1" arrows="1" fold="1" page="1" pageScale="1" pageWidth="827" pageHeight="1169" math="0" shadow="0">
      <root>
        <mxCell id="0" />
        <mxCell id="1" parent="0" />
        <mxCell id="y2SCIu26ce-0VS2-ftHP-17" value="" style="edgeStyle=orthogonalEdgeStyle;rounded=0;orthogonalLoop=1;jettySize=auto;html=1;" edge="1" parent="1" source="y2SCIu26ce-0VS2-ftHP-1" target="y2SCIu26ce-0VS2-ftHP-2">
          <mxGeometry relative="1" as="geometry" />
        </mxCell>
        <mxCell id="y2SCIu26ce-0VS2-ftHP-1" value="start" style="ellipse;whiteSpace=wrap;html=1;" vertex="1" parent="1">
          <mxGeometry x="350" y="40" width="120" height="80" as="geometry" />
        </mxCell>
        <mxCell id="y2SCIu26ce-0VS2-ftHP-18" value="" style="edgeStyle=orthogonalEdgeStyle;rounded=0;orthogonalLoop=1;jettySize=auto;html=1;" edge="1" parent="1" source="y2SCIu26ce-0VS2-ftHP-2" target="y2SCIu26ce-0VS2-ftHP-5">
          <mxGeometry relative="1" as="geometry" />
        </mxCell>
        <mxCell id="y2SCIu26ce-0VS2-ftHP-2" value="shop_guide导购表" style="rounded=0;whiteSpace=wrap;html=1;" vertex="1" parent="1">
          <mxGeometry x="270" y="200" width="280" height="60" as="geometry" />
        </mxCell>
        <mxCell id="y2SCIu26ce-0VS2-ftHP-19" value="" style="edgeStyle=orthogonalEdgeStyle;rounded=0;orthogonalLoop=1;jettySize=auto;html=1;" edge="1" parent="1" source="y2SCIu26ce-0VS2-ftHP-5" target="y2SCIu26ce-0VS2-ftHP-8">
          <mxGeometry relative="1" as="geometry" />
        </mxCell>
        <mxCell id="y2SCIu26ce-0VS2-ftHP-5" value="导购表中的user_id找user_user表crmId拿到crmId" style="rounded=0;whiteSpace=wrap;html=1;" vertex="1" parent="1">
          <mxGeometry x="270" y="320" width="280" height="60" as="geometry" />
        </mxCell>
        <mxCell id="y2SCIu26ce-0VS2-ftHP-24" value="" style="edgeStyle=orthogonalEdgeStyle;rounded=0;orthogonalLoop=1;jettySize=auto;html=1;" edge="1" parent="1" source="y2SCIu26ce-0VS2-ftHP-8" target="y2SCIu26ce-0VS2-ftHP-11">
          <mxGeometry relative="1" as="geometry" />
        </mxCell>
        <mxCell id="y2SCIu26ce-0VS2-ftHP-8" value="通过user_userinfo表查询是否有注册所属分销员id" style="rounded=0;whiteSpace=wrap;html=1;" vertex="1" parent="1">
          <mxGeometry x="270" y="440" width="280" height="60" as="geometry" />
        </mxCell>
        <mxCell id="y2SCIu26ce-0VS2-ftHP-25" style="edgeStyle=orthogonalEdgeStyle;rounded=0;orthogonalLoop=1;jettySize=auto;html=1;" edge="1" parent="1" source="y2SCIu26ce-0VS2-ftHP-11">
          <mxGeometry relative="1" as="geometry">
            <mxPoint x="600" y="700" as="targetPoint" />
          </mxGeometry>
        </mxCell>
        <mxCell id="y2SCIu26ce-0VS2-ftHP-27" style="edgeStyle=orthogonalEdgeStyle;rounded=0;orthogonalLoop=1;jettySize=auto;html=1;" edge="1" parent="1" source="y2SCIu26ce-0VS2-ftHP-11">
          <mxGeometry relative="1" as="geometry">
            <mxPoint x="160" y="710" as="targetPoint" />
            <Array as="points">
              <mxPoint x="160" y="600" />
            </Array>
          </mxGeometry>
        </mxCell>
        <mxCell id="y2SCIu26ce-0VS2-ftHP-28" value="NOt" style="edgeLabel;html=1;align=center;verticalAlign=middle;resizable=0;points=[];" vertex="1" connectable="0" parent="y2SCIu26ce-0VS2-ftHP-27">
          <mxGeometry x="-0.3025" y="2" relative="1" as="geometry">
            <mxPoint y="8" as="offset" />
          </mxGeometry>
        </mxCell>
        <mxCell id="y2SCIu26ce-0VS2-ftHP-11" value="reg_distributor_id是否为空" style="rhombus;whiteSpace=wrap;html=1;" vertex="1" parent="1">
          <mxGeometry x="320" y="560" width="180" height="80" as="geometry" />
        </mxCell>
        <mxCell id="y2SCIu26ce-0VS2-ftHP-33" style="edgeStyle=orthogonalEdgeStyle;rounded=0;orthogonalLoop=1;jettySize=auto;html=1;entryX=1;entryY=0.5;entryDx=0;entryDy=0;" edge="1" parent="1" source="y2SCIu26ce-0VS2-ftHP-12" target="y2SCIu26ce-0VS2-ftHP-15">
          <mxGeometry relative="1" as="geometry">
            <mxPoint x="400" y="1110" as="targetPoint" />
            <Array as="points">
              <mxPoint x="680" y="1150" />
            </Array>
          </mxGeometry>
        </mxCell>
        <mxCell id="y2SCIu26ce-0VS2-ftHP-12" value="&lt;span lang=&quot;EN-US&quot; style=&quot;font-size: 12.0pt ; font-family: &amp;#34;source han sans cn regular&amp;#34;&quot;&gt;fh_salesperson_relationship type为0，&lt;/span&gt;&lt;span lang=&quot;EN-US&quot; style=&quot;font-size: 12.0pt ; font-family: &amp;#34;source han sans cn regular&amp;#34; ; color: #404040&quot;&gt;parent_id为空，对应的crmId&lt;/span&gt;" style="rounded=0;whiteSpace=wrap;html=1;" vertex="1" parent="1">
          <mxGeometry x="460" y="720" width="280" height="60" as="geometry" />
        </mxCell>
        <mxCell id="y2SCIu26ce-0VS2-ftHP-30" value="" style="edgeStyle=orthogonalEdgeStyle;rounded=0;orthogonalLoop=1;jettySize=auto;html=1;" edge="1" parent="1" source="y2SCIu26ce-0VS2-ftHP-13" target="y2SCIu26ce-0VS2-ftHP-29">
          <mxGeometry relative="1" as="geometry" />
        </mxCell>
        <mxCell id="y2SCIu26ce-0VS2-ftHP-13" value="&lt;span lang=&quot;EN-US&quot; style=&quot;font-size: 12pt ; font-family: &amp;#34;source han sans cn regular&amp;#34;&quot;&gt;fh_salesperson_relationship type为0，shop_id所属店铺？（产品手工核对，找出关系update），对应的crmId&lt;/span&gt;" style="rounded=0;whiteSpace=wrap;html=1;" vertex="1" parent="1">
          <mxGeometry x="20" y="720" width="300" height="60" as="geometry" />
        </mxCell>
        <mxCell id="y2SCIu26ce-0VS2-ftHP-32" style="edgeStyle=orthogonalEdgeStyle;rounded=0;orthogonalLoop=1;jettySize=auto;html=1;" edge="1" parent="1" source="y2SCIu26ce-0VS2-ftHP-14" target="y2SCIu26ce-0VS2-ftHP-15">
          <mxGeometry relative="1" as="geometry">
            <Array as="points">
              <mxPoint x="160" y="1150" />
            </Array>
          </mxGeometry>
        </mxCell>
        <mxCell id="y2SCIu26ce-0VS2-ftHP-14" value="门店表shop_shop 的id ---&amp;gt;主数据的门店编码---shop_id (只能手动核对)" style="rounded=0;whiteSpace=wrap;html=1;" vertex="1" parent="1">
          <mxGeometry x="30" y="990" width="280" height="60" as="geometry" />
        </mxCell>
        <mxCell id="y2SCIu26ce-0VS2-ftHP-34" value="" style="edgeStyle=orthogonalEdgeStyle;rounded=0;orthogonalLoop=1;jettySize=auto;html=1;" edge="1" parent="1" source="y2SCIu26ce-0VS2-ftHP-15" target="y2SCIu26ce-0VS2-ftHP-16">
          <mxGeometry relative="1" as="geometry" />
        </mxCell>
        <mxCell id="y2SCIu26ce-0VS2-ftHP-15" value="return" style="rounded=0;whiteSpace=wrap;html=1;" vertex="1" parent="1">
          <mxGeometry x="340" y="1120" width="120" height="60" as="geometry" />
        </mxCell>
        <mxCell id="y2SCIu26ce-0VS2-ftHP-16" value="end" style="ellipse;whiteSpace=wrap;html=1;" vertex="1" parent="1">
          <mxGeometry x="340" y="1240" width="120" height="80" as="geometry" />
        </mxCell>
        <mxCell id="y2SCIu26ce-0VS2-ftHP-26" value="YES" style="text;html=1;align=center;verticalAlign=middle;resizable=0;points=[];autosize=1;strokeColor=none;fillColor=none;" vertex="1" parent="1">
          <mxGeometry x="590" y="630" width="40" height="20" as="geometry" />
        </mxCell>
        <mxCell id="y2SCIu26ce-0VS2-ftHP-31" value="" style="edgeStyle=orthogonalEdgeStyle;rounded=0;orthogonalLoop=1;jettySize=auto;html=1;" edge="1" parent="1" source="y2SCIu26ce-0VS2-ftHP-29" target="y2SCIu26ce-0VS2-ftHP-14">
          <mxGeometry relative="1" as="geometry" />
        </mxCell>
        <mxCell id="y2SCIu26ce-0VS2-ftHP-29" value="在user_user表中有CRMID，找出用户和门店关系" style="rounded=0;whiteSpace=wrap;html=1;" vertex="1" parent="1">
          <mxGeometry x="25" y="860" width="290" height="60" as="geometry" />
        </mxCell>
      </root>
    </mxGraphModel>
  </diagram>
</mxfile>
